# Blender v2.81 (sub 16) OBJ File: ''
# www.blender.org
mtllib buildingCorridorHole.mtl
o buildingCorridor
v 0.000000 -0.000002 4.513520
v 0.000000 0.000000 5.486480
v -10.000000 0.000000 5.486480
v -10.000000 -0.000002 4.513520
v 0.000000 0.700000 4.513520
v -10.000000 0.700000 4.513520
v -10.000000 0.700001 5.486480
v 0.000000 0.700001 5.486480
v -1.636594 9.726935 4.513519
v -1.636594 9.726937 5.486480
v -2.477444 10.049610 5.486480
v -2.477444 10.049608 4.513519
v -7.522555 10.049608 4.513519
v -7.522555 10.049610 5.486480
v -8.363406 9.726937 5.486480
v -8.363406 9.726935 4.513519
v -0.481561 5.800002 5.457292
v -9.518438 5.800002 5.457292
v -7.822425 9.125854 5.457292
v -2.177575 9.125854 5.457292
v -6.541816 9.617268 5.457291
v -3.458184 9.617268 5.457291
v -9.518438 5.800000 4.542708
v -0.481561 5.800000 4.542708
v -2.177575 9.125852 4.542708
v -7.822425 9.125852 4.542708
v -6.541816 9.617266 4.542708
v -3.458184 9.617266 4.542708
v -10.000000 1.499996 4.513520
v 0.000000 1.499996 4.513520
v 0.000000 2.699997 4.513520
v -10.000000 2.699997 4.513520
v 0.000000 1.499998 5.486480
v 0.000000 2.699999 5.486480
v -10.000000 1.499998 5.486480
v -10.000000 2.699999 5.486480
v -0.299998 2.699999 5.457292
v -9.700002 2.699999 5.457292
v -9.700002 2.699997 4.542708
v -0.299998 2.699997 4.542708
v -10.000000 6.517601 5.486480
v -10.000000 5.800002 5.486480
v -10.000000 5.800000 4.513520
v -10.000000 6.517599 4.513520
v -9.518438 5.800000 4.513520
v -9.700002 5.800000 4.542708
v -9.700002 5.800002 5.457292
v -9.518438 5.800002 5.486480
v 0.000000 6.517601 5.486480
v 0.000000 6.517599 4.513520
v -3.318295 10.372270 5.486480
v -3.318295 10.372268 4.513520
v -6.681705 10.372268 4.513520
v -6.681705 10.372270 5.486480
v 0.000000 5.800002 5.486480
v 0.000000 5.800000 4.513520
v -6.541816 9.617268 5.486480
v -7.822425 9.125854 5.486480
v -3.458184 9.617268 5.486480
v -7.822425 9.125852 4.513520
v -2.177575 9.125852 4.513520
v -3.458184 9.617266 4.513519
v -6.541816 9.617266 4.513519
v -0.299998 5.800000 4.542708
v -0.481561 5.800000 4.513520
v -0.299998 5.800002 5.457292
v -0.481561 5.800002 5.486480
v -2.177575 9.125854 5.486480
v -1.440517 -0.000002 4.513520
v -1.440517 -0.000001 4.653677
v -1.440517 0.000000 5.486480
v -1.440517 0.700000 4.513520
v -1.440517 0.599163 4.513520
v -1.440517 1.499996 4.513520
v -1.440517 1.384755 4.513520
v -4.204965 0.700001 5.486480
v -4.204965 1.036397 5.486480
v -4.204965 -0.000002 4.513520
v -4.204965 -0.000001 4.922647
v -4.204965 0.000000 5.486481
v -4.204965 0.294348 5.486481
v -4.204965 1.499998 5.486480
v -4.204965 2.531018 5.486480
v -4.204965 2.531018 4.513520
v -4.204965 2.004594 5.486480
v -4.204965 0.700000 4.513520
v -4.204964 0.405652 4.513520
v -4.204964 1.499996 4.513520
v -4.204964 2.195401 4.513520
v -4.204964 1.163601 4.513520
v -1.440517 2.531018 5.486480
v -1.440517 2.531018 4.513520
v -1.440517 1.672861 5.486480
v -1.440518 0.700001 5.486481
v -1.440517 0.815242 5.486480
v -1.440517 0.100836 5.486480
v -1.440518 2.527135 4.513520
v -1.440517 1.499998 5.486480
vt 0.625000 0.570678
vt 0.625000 0.692298
vt 0.875000 0.692298
vt 0.875000 0.570678
vt 0.624699 0.570678
vt 0.545235 0.570678
vt 0.536319 0.570678
vt 0.483343 0.570678
vt 0.475542 0.570678
vt 0.429188 0.570678
vt 0.429188 0.588197
vt 0.429188 0.692298
vt 0.436989 0.692298
vt 0.483343 0.692298
vt 0.492259 0.692298
vt 0.545235 0.692298
vt 0.558609 0.692298
vt 0.625000 0.179322
vt 0.625000 0.057702
vt 0.584273 0.057702
vt 0.545235 0.057702
vt 0.509369 0.057702
vt 0.483343 0.057702
vt 0.451960 0.057702
vt 0.429188 0.057702
vt 0.429188 0.128181
vt 0.429188 0.179322
vt 0.460571 0.179322
vt 0.483343 0.179322
vt 0.519210 0.179322
vt 0.545235 0.179322
vt 0.599035 0.179322
vt 0.000001 0.000001
vt 0.000001 0.000001
vt 0.000001 0.000001
vt 0.000001 0.000001
vt 0.000001 0.000001
vt 0.000001 0.000001
vt 0.000001 0.000001
vt 0.000001 0.000001
vt 0.000001 0.000001
vt 0.000001 0.000001
vt 0.000001 0.000001
vt 0.000001 0.000001
vt 0.000001 0.000001
vt 0.000001 0.000001
vt 0.000001 0.000001
vt 0.000001 0.000001
vt 0.000001 0.000001
vt 0.000001 0.000001
vt -39.370079 25.659821
vt -39.370079 22.834650
vt 0.000001 22.834650
vt -39.370079 25.659821
vt -39.370079 22.834650
vt 0.000001 22.834650
vt -39.370079 25.659821
vt -39.370079 22.834650
vt 0.000001 22.834650
vt -39.370079 25.659821
vt -39.370079 22.834650
vt 0.000001 22.834650
vt 1.181106 21.203640
vt 1.181106 35.901779
vt 0.000001 35.901779
vt 1.181106 21.203640
vt 1.181106 35.901779
vt 0.000001 35.901779
vt 1.181106 35.901779
vt 0.000001 35.901779
vt 1.181106 21.203640
vt 1.181106 35.901779
vt 38.188980 21.203640
vt 39.370079 21.203640
vt 39.370079 35.901779
vt 38.188980 21.203640
vt 39.370079 21.203640
vt 39.370079 35.901779
vt 39.370079 21.203640
vt 39.370079 35.901779
vt 39.370079 21.203640
vt 39.370079 35.901779
vt 0.000001 0.000001
vt 0.000001 0.000001
vt 0.000001 0.000001
vt 0.000001 0.000001
vt -39.370079 5.905513
vt -16.554977 5.905513
vt -16.554977 8.643324
vt 0.000001 10.629920
vt -39.370079 10.629920
vt -16.554977 9.964648
vt -5.671325 9.964649
vt -5.671329 9.949361
vt 0.000001 5.905513
vt 0.000001 10.629920
vt -39.370079 10.629920
vt -39.370079 5.905513
vt 5.671329 5.905513
vt 5.671329 6.586072
vt 39.370079 10.629920
vt 5.671328 9.964642
vt 16.554979 9.964643
vt 16.554981 7.892110
vt 0.000001 10.629920
vt 0.000001 5.905513
vt 39.370079 5.905513
vt 39.370079 10.629920
vt 1.181106 1.181106
vt 0.000001 39.370079
vt 0.000001 0.000001
vt 39.370079 0.000001
vt 38.188980 1.181106
vt 38.188980 38.188980
vt 1.181106 38.188980
vt 39.370079 39.370079
vt -5.671325 5.905513
vt 0.000001 5.905513
vt 16.554981 5.905513
vt 39.370079 5.905513
vt 0.000001 25.659821
vt 0.000001 22.834650
vt 39.370079 22.834650
vt 39.370079 25.659821
vt -37.474159 38.188980
vt -37.474159 39.370079
vt -39.370079 39.370079
vt -38.188980 38.188980
vt -38.188980 1.181106
vt -39.370079 0.000001
vt -37.474159 0.000001
vt -37.474159 1.181106
vt 0.000001 22.859171
vt 0.000001 37.042412
vt -39.370079 37.042412
vt -39.370079 22.859171
vt -39.370079 23.281111
vt 0.000001 23.281111
vt 0.000001 26.826920
vt -39.370079 26.826920
vt 39.370079 -9.929785
vt 0.000001 -9.929785
vt 0.000001 -13.475590
vt 39.370079 -13.475590
vt 0.000001 19.157030
vt 0.000001 4.973796
vt 39.370079 4.973796
vt 39.370079 19.157030
vt 13.064160 39.370079
vt 13.064160 0.000001
vt 26.305920 0.000001
vt 26.305920 39.370079
vt 0.000001 22.834650
vt 0.000001 25.659821
vt -39.370079 25.659821
vt -39.370079 22.834650
vt 0.000001 -10.480520
vt -1.181103 -10.480520
vt -1.181103 -15.880780
vt 0.000001 -15.880780
vt -13.614900 0.000001
vt -13.614900 1.181106
vt -25.755180 1.181106
vt -25.755180 0.000001
vt -38.188980 3.318261
vt -38.188980 18.016399
vt -39.370079 18.016399
vt -39.370079 3.318261
vt 38.188980 20.875931
vt 39.370079 20.875931
vt 39.370079 26.276180
vt 38.188980 26.276180
vt -13.614900 38.188980
vt -13.614900 39.370079
vt -25.755180 39.370079
vt -25.755180 38.188980
vt -38.188980 -10.480520
vt -39.370079 -10.480520
vt -39.370079 -15.880780
vt -38.188980 -15.880780
vt -1.181103 38.188980
vt 0.000001 0.000001
vt 0.000001 39.370079
vt -1.895913 39.370079
vt -1.895913 38.188980
vt -1.181103 1.181106
vt -1.895913 0.000001
vt -1.895913 1.181106
vt 0.000001 20.875931
vt 1.181106 20.875931
vt 1.181106 26.276180
vt 0.000001 26.276180
vt 37.474159 22.834650
vt 39.370079 22.834650
vt 39.370079 25.659821
vt 30.796961 35.928551
vt 32.926800 38.295029
vt 25.755180 37.863258
vt 6.443287 38.295029
vt 13.614900 37.863258
vt 8.573119 35.928551
vt 1.895916 22.834650
vt 29.616360 39.565361
vt 9.753726 39.565361
vt 26.305920 40.835701
vt 13.064160 40.835701
vt 0.000001 35.901779
vt 0.000001 21.203640
vt 0.000001 3.318261
vt 0.000001 18.016399
vt -1.181103 18.016399
vt -1.181103 3.318261
vt -1.895913 22.834650
vt 0.000001 22.834650
vt 0.000001 25.659821
vt -8.573116 35.928551
vt -6.443285 38.295029
vt -13.614900 37.863258
vt -25.755180 37.863258
vt -32.926788 38.295029
vt -30.796961 35.928551
vt -39.370079 25.659821
vt -39.370079 22.834650
vt -37.474159 22.834650
vt -9.753723 39.565361
vt -29.616350 39.565361
vt -13.064160 40.835701
vt -26.305920 40.835701
vt 39.370079 35.901779
vt 38.188980 35.901779
vt 38.188980 21.203640
vt 39.370079 21.203640
vt 0.000001 2.755905
vt -39.370079 2.755905
vt 5.671331 2.755905
vt 5.671329 3.209611
vt 16.554981 4.080304
vt -39.370079 2.755905
vt -16.554979 2.755905
vt -16.554977 4.581114
vt -5.671326 5.451806
vt 0.000001 2.755905
vt 39.370079 2.755905
vt -5.671327 2.755905
vt 0.000001 2.755905
vt 16.554979 2.755905
vt 39.370079 2.755905
vt 1.181106 22.834650
vt 1.181106 10.629920
vt 38.188980 10.629920
vt 38.188980 22.834650
vt 1.181106 10.629920
vt 38.188980 10.629920
vt 38.188980 22.834650
vt 1.181106 22.834650
vt 37.474159 22.834650
vt 1.895916 22.834650
vt -1.181103 10.629920
vt -1.181103 22.834650
vt -38.188980 22.834650
vt -38.188980 10.629920
vt -38.188980 10.629920
vt -1.181103 10.629920
vt -1.181103 22.834650
vt -38.188980 22.834650
vt -1.895913 22.834650
vt -37.474159 22.834650
vn 0.0000 -1.0000 -0.0000
vn -1.0000 0.0000 -0.0000
vn 1.0000 -0.0000 0.0000
vn -0.0039 -1.0000 0.0000
vn 0.0000 -1.0000 -0.0039
vn 0.0034 -1.0000 -0.0019
vn -0.0034 -1.0000 0.0019
vn -0.0039 0.0039 1.0000
vn 0.0000 0.0000 1.0000
vn 0.0044 0.0034 1.0000
vn -0.0039 -0.0039 1.0000
vn -0.0044 -0.0034 1.0000
vn 1.0000 0.0036 -0.0014
vn 1.0000 0.0039 0.0000
vn 1.0000 0.0035 -0.0016
vn -0.0039 0.0039 -1.0000
vn 0.0000 0.0000 -1.0000
vn 0.0021 0.0051 -1.0000
vn -0.0039 -0.0039 -1.0000
vn -0.0021 -0.0051 -1.0000
vn -1.0000 0.0039 0.0000
vn -1.0000 0.0036 0.0014
vn -1.0000 0.0035 0.0016
vn -0.3607 -0.9327 0.0000
vn 0.3606 -0.9327 0.0000
vn 0.3607 -0.9327 0.0000
vn 0.0003 -0.0055 1.0000
vn -0.0017 0.0052 -1.0000
vn 0.0039 0.0039 1.0000
vn 0.0039 0.0039 -1.0000
vn 0.0055 0.0007 1.0000
vn -0.0055 -0.0007 1.0000
vn -0.0039 1.0000 0.0000
vn -0.8878 -0.4557 0.0646
vn -0.3606 -0.9327 0.0000
vn 0.8878 -0.4557 0.0646
vn -0.3607 0.9327 0.0000
vn -0.3606 0.9327 -0.0000
vn -0.8878 0.4557 0.0646
vn 0.3607 0.9327 -0.0000
vn 0.3606 0.9327 0.0000
vn 0.8878 0.4557 0.0646
usemtl _defaultMat
s off
f 92/1/1 91/2/1 83/3/1 84/4/1
f 91/2/2 92/1/2 97/5/2 74/6/2 75/7/2 72/8/2 73/9/2 69/10/2 70/11/2 71/12/2 96/13/2 94/14/2 95/15/2 98/16/2 93/17/2
f 84/18/3 83/19/3 85/20/3 82/21/3 77/22/3 76/23/3 81/24/3 80/25/3 79/26/3 78/27/3 87/28/3 86/29/3 90/30/3 88/31/3 89/32/3
s 1
f 1/33/4 2/34/4 71/35/5 70/36/6
f 3/37/4 4/38/4 78/39/5 79/40/7
f 4/38/8 78/39/9 87/41/10
f 5/42/8 72/43/11 73/44/12
f 7/45/13 3/37/14 4/38/15
f 4/38/14 6/46/14 7/45/14
f 2/34/16 71/35/17 96/47/18
f 7/45/16 76/48/19 81/49/20
f 2/34/21 8/50/21 5/42/21
f 5/42/22 1/33/21 2/34/23
f 9/51/24 10/52/24 11/53/24
f 11/54/24 12/55/24 9/56/24
f 13/57/25 14/58/26 15/59/25
f 15/60/25 16/61/25 13/62/25
f 17/63/16 18/64/27 19/65/16
f 19/66/16 20/67/16 17/68/16
f 19/66/16 21/69/16 20/70/16
f 21/71/16 22/72/16 20/70/16
f 23/73/8 24/74/28 25/75/8
f 25/76/8 26/77/8 23/78/8
f 25/76/8 27/79/8 26/80/8
f 25/76/8 28/81/8 27/82/8
f 79/40/7 80/83/4 3/37/4
f 70/36/6 69/84/4 1/33/4
f 73/44/12 69/84/8 1/33/8 5/42/8
f 87/41/10 86/85/29 6/46/8 4/38/8
f 96/47/18 94/86/30 8/50/16 2/34/16
f 81/49/20 80/83/16 3/37/16 7/45/16
usemtl pipe
f 29/87/8 88/88/29 89/89/31
f 31/90/8 32/91/8 29/87/8 89/89/31 84/92/9 92/93/9 97/94/32
f 33/95/21 34/96/21 31/97/21
f 31/97/21 30/98/21 33/95/21
f 33/95/16 98/99/30 93/100/18
f 36/101/16 34/96/16 33/95/16 93/100/18 91/102/17 83/103/17 85/104/20
f 36/105/14 35/106/14 29/107/14
f 29/107/14 32/108/14 36/105/14
f 37/109/4 31/110/4 34/111/4
f 34/111/4 36/112/4 37/109/4
f 36/112/4 38/113/4 37/109/4
f 36/112/4 39/114/4 38/113/4
f 31/110/4 37/109/4 40/115/4
f 40/115/4 32/116/4 31/110/4
f 40/115/4 39/114/4 32/116/4
f 39/114/4 36/112/4 32/116/4
f 97/94/32 74/117/11 30/118/8 31/90/8
f 85/104/20 82/119/19 35/120/16 36/101/16
usemtl metal
f 41/121/14 42/122/14 43/123/14
f 43/123/14 44/124/14 41/121/14
f 23/125/33 45/126/33 43/127/33
f 43/127/33 46/128/33 23/125/33
f 43/127/33 47/129/33 46/128/33
f 47/129/33 43/127/33 42/130/33
f 47/129/33 42/130/33 48/131/33
f 48/131/33 18/132/33 47/129/33
f 49/133/34 10/134/34 9/135/34
f 9/135/34 50/136/34 49/133/34
f 12/137/24 11/138/24 51/139/24
f 51/139/24 52/140/35 12/137/24
f 53/141/26 54/142/25 14/143/26
f 14/143/26 13/144/25 53/141/26
f 15/145/36 41/146/36 44/147/36
f 44/147/36 16/148/36 15/145/36
f 52/149/4 51/150/4 54/151/4
f 54/151/4 53/152/4 52/149/4
f 55/153/21 49/154/21 50/155/21
f 50/155/21 56/156/21 55/153/21
f 57/157/37 21/158/37 19/159/37
f 19/159/37 58/160/38 57/157/37
f 59/161/33 22/162/33 21/163/33
f 21/163/33 57/164/33 59/161/33
f 23/165/39 26/166/39 60/167/39
f 60/167/39 45/168/39 23/165/39
f 25/169/40 61/170/41 62/171/41
f 62/171/41 28/172/41 25/169/40
f 28/173/33 62/174/33 63/175/33
f 63/175/33 27/176/33 28/173/33
f 27/177/37 63/178/37 60/179/38
f 60/179/38 26/180/37 27/177/37
f 64/181/33 55/182/33 56/183/33
f 56/183/33 65/184/33 64/181/33
f 65/184/33 24/185/33 64/181/33
f 55/182/33 64/181/33 66/186/33
f 66/186/33 67/187/33 55/182/33
f 66/186/33 17/188/33 67/187/33
f 68/189/40 20/190/41 22/191/40
f 22/191/40 59/192/41 68/189/40
f 48/193/16 42/194/16 41/195/16
f 41/195/16 58/196/16 48/193/16
f 41/195/16 15/197/16 58/196/16
f 15/197/16 57/198/16 58/196/16
f 57/198/16 15/197/16 10/199/16
f 59/200/16 57/198/16 10/199/16
f 68/201/16 59/200/16 10/199/16
f 68/201/16 10/199/16 49/154/16
f 68/201/16 49/154/16 55/153/16
f 55/153/16 67/202/16 68/201/16
f 15/197/16 14/203/16 10/199/16
f 14/203/16 11/204/16 10/199/16
f 14/203/16 54/205/16 11/204/16
f 54/205/16 51/206/16 11/204/16
f 68/207/42 67/208/42 17/63/42
f 17/63/42 20/67/42 68/207/42
f 48/209/39 58/210/39 19/211/39
f 19/211/39 18/212/39 48/209/39
f 65/213/8 56/214/8 50/215/8
f 50/215/8 61/216/8 65/213/8
f 50/215/8 9/217/8 61/216/8
f 9/217/8 62/218/8 61/216/8
f 9/217/8 63/219/8 62/218/8
f 63/219/8 9/217/8 16/220/8
f 60/221/8 63/219/8 16/220/8
f 60/221/8 16/220/8 44/222/8
f 60/221/8 44/222/8 43/223/8
f 43/223/8 45/224/8 60/221/8
f 9/217/8 12/225/8 16/220/8
f 12/225/8 13/226/8 16/220/8
f 12/225/8 52/227/8 13/226/8
f 52/227/8 53/228/8 13/226/8
f 61/229/42 25/230/42 24/231/42
f 24/231/42 65/232/42 61/229/42
f 8/233/21 33/95/21 30/98/21
f 30/98/21 5/234/21 8/233/21
f 8/233/16 94/235/30 95/236/30
f 35/120/16 82/119/19 77/237/19
f 6/238/8 86/239/29 90/240/29
f 30/118/8 74/117/11 75/241/11
f 35/106/14 7/242/14 6/243/14
f 6/243/14 29/107/14 35/106/14
f 95/236/30 98/99/30 33/95/16 8/233/16
f 75/241/11 72/244/11 5/245/8 30/118/8
f 77/237/19 76/246/19 7/247/16 35/120/16
f 90/240/29 88/88/29 29/87/8 6/238/8
usemtl glass
f 47/248/14 38/249/14 39/250/14
f 39/250/14 46/251/14 47/248/14
f 37/252/16 38/253/16 47/254/16
f 47/254/16 66/255/16 37/252/16
f 47/254/16 18/256/27 66/255/16
f 18/256/27 17/257/16 66/255/16
f 37/258/21 66/259/21 64/260/21
f 64/260/21 40/261/21 37/258/21
f 39/262/8 40/263/8 64/264/8
f 64/264/8 46/265/8 39/262/8
f 64/264/8 24/266/28 46/265/8
f 24/266/28 23/267/8 46/265/8
